{"title":"La Regle du Jeu aka The Rules of the Game (1939)_Criterion_eng_s","uid":6255231,"size":1472533357,"categoryP":"video","categoryS":"movies","magnet":"?xt=urn:btih:14e3351e68d3e5501e50dfbee4fdd2810d86eb73&amp;dn=La+Regle+du+Jeu+aka+The+Rules+of+the+Game+%281939%29_Criterion_eng_s&amp;tr=udp%3A%2F%2Ftracker.openbittorrent.com%3A80&amp;tr=udp%3A%2F%2Fopen.demonii.com%3A1337&amp;tr=udp%3A%2F%2Ftracker.coppersurfer.tk%3A6969&amp;tr=udp%3A%2F%2Fexodus.desync.com%3A6969","seeders":13,"leechers":2,"uploader":"pancc","files":11,"time":1300550048,"description":"Renoir's look at bourgeois life in France at the onset of World War II. An assorted cast of characters - the rich and their poor servants - meet up at a French chateau.\n\nDirector:\nJean Renoir\n\nWriters:\nJean Renoir (scenario &amp; dialogue), Carl Koch (collaborator)\n\nStars:\nMarcel Dalio, Nora Gregor and Paulette Dubost\n\nDual audio:\n\n#1 Original French audio\n#2 Comments in English\n\nSubtitles: English (idx sub); Spanish, Portuguese (srt).\n\nCD1\n\nFormat                           : AVI\nFormat/Info                      : Audio Video Interleave\nFile size                        : 699 MiB\nDuration                         : 48mn 26s\nOverall bit rate                 : 2 018 Kbps\nWriting application              : VirtualDubMod 1.5.4.1 (build 2178/release)\nWriting library                  : VirtualDubMod build 2178/release\n\nVideo\nID                               : 0\nFormat                           : MPEG-4 Visual\nFormat profile                   : Advanced Simple@L5\nFormat settings, BVOP            : Yes\nFormat settings, QPel            : No\nFormat settings, GMC             : No warppoints\nFormat settings, Matrix          : Custom\nCodec ID                         : XVID\nCodec ID/Hint                    : XviD\nDuration                         : 48mn 26s\nBit rate                         : 1 750 Kbps\nWidth                            : 512 pixels\nHeight                           : 384 pixels\nDisplay aspect ratio             : 4:3\nFrame rate                       : 23.976 fps\nColor space                      : YUV\nChroma subsampling               : 4:2:0\nBit depth                        : 8 bits\nScan type                        : Progressive\nBits/(Pixel*Frame)               : 0.371\nStream size                      : 606 MiB (87%)\nWriting library                  : XviD 1.1.0 Beta2 (UTC 2005-04-04)\n\nAudio #1\nID                               : 1\nFormat                           : AC-3\nFormat/Info                      : Audio Coding 3\nMode extension                   : CM (complete main)\nCodec ID                         : 2000\nDuration                         : 48mn 26s\nBit rate mode                    : Constant\nBit rate                         : 192 Kbps\nChannel(s)                       : 1 channel\nChannel positions                : Front: C\nSampling rate                    : 48.0 KHz\nBit depth                        : 16 bits\nStream size                      : 66.5 MiB (10%)\nAlignment                        : Split accross interleaves\nInterleave, duration             : 96 ms (2.30 video frames)\nInterleave, preload duration     : 96 ms\nLanguage                         : French / French\n\nAudio #2\nID                               : 2\nFormat                           : MPEG Audio\nFormat version                   : Version 1\nFormat profile                   : Layer 3\nCodec ID                         : 55\nCodec ID/Hint                    : MP3\nDuration                         : 48mn 26s\nBit rate mode                    : Variable\nBit rate                         : 64.0 Kbps\nChannel(s)                       : 1 channel\nSampling rate                    : 48.0 KHz\nStream size                      : 21.3 MiB (3%)\nAlignment                        : Aligned on interleaves\nInterleave, duration             : 24 ms (0.58 video frame)\nInterleave, preload duration     : 297 ms\nWriting library                  : LAME3.96r\nEncoding settings                : -m m -V 4 -q 2 -lowpass 16.5 --abr 64\nLanguage                         : English / English\n\nCD2\n\nFormat                           : AVI\nFormat/Info                      : Audio Video Interleave\nFile size                        : 700 MiB\nDuration                         : 58mn 18s\nOverall bit rate                 : 1 678 Kbps\nWriting application              : VirtualDubMod 1.5.4.1 (build 2178/release)\nWriting library                  : VirtualDubMod build 2178/release\n\nVideo\nID                               : 0\nFormat                           : MPEG-4 Visual\nFormat profile                   : Advanced Simple@L5\nFormat settings, BVOP            : Yes\nFormat settings, QPel            : No\nFormat settings, GMC             : No warppoints\nFormat settings, Matrix          : Custom\nCodec ID                         : XVID\nCodec ID/Hint                    : XviD\nDuration                         : 58mn 18s\nBit rate                         : 1 409 Kbps\nWidth                            : 512 pixels\nHeight                           : 384 pixels\nDisplay aspect ratio             : 4:3\nFrame rate                       : 23.976 fps\nColor space                      : YUV\nChroma subsampling               : 4:2:0\nBit depth                        : 8 bits\nScan type                        : Progressive\nBits/(Pixel*Frame)               : 0.299\nStream size                      : 588 MiB (84%)\nWriting library                  : XviD 1.1.0 Beta2 (UTC 2005-04-04)\n\nAudio #1\nID                               : 1\nFormat                           : AC-3\nFormat/Info                      : Audio Coding 3\nMode extension                   : CM (complete main)\nCodec ID                         : 2000\nDuration                         : 58mn 5s\nBit rate mode                    : Constant\nBit rate                         : 192 Kbps\nChannel(s)                       : 1 channel\nChannel positions                : Front: C\nSampling rate                    : 48.0 KHz\nBit depth                        : 16 bits\nVideo delay                      : 10ms\nStream size                      : 79.8 MiB (11%)\nAlignment                        : Split accross interleaves\nInterleave, duration             : 96 ms (2.31 video frames)\nInterleave, preload duration     : 96 ms\nLanguage                         : French / French\n\nAudio #2\nID                               : 2\nFormat                           : MPEG Audio\nFormat version                   : Version 1\nFormat profile                   : Layer 3\nCodec ID                         : 55\nCodec ID/Hint                    : MP3\nDuration                         : 58mn 5s\nBit rate mode                    : Variable\nBit rate                         : 62.0 Kbps\nChannel(s)                       : 1 channel\nSampling rate                    : 48.0 KHz\nStream size                      : 26.0 MiB (4%)\nAlignment                        : Aligned on interleaves\nInterleave, duration             : 24 ms (0.58 video frame)\nInterleave, preload duration     : 517 ms\nLanguage                         : English / English\n ","torrent":{"xt":"urn:btih:14e3351e68d3e5501e50dfbee4fdd2810d86eb73","amp;dn":"La+Regle+du+Jeu+aka+The+Rules+of+the+Game+%281939%29_Criterion_eng_s","amp;tr":["udp%3A%2F%2Ftracker.openbittorrent.com%3A80","udp%3A%2F%2Fopen.demonii.com%3A1337","udp%3A%2F%2Ftracker.coppersurfer.tk%3A6969","udp%3A%2F%2Fexodus.desync.com%3A6969"],"infoHash":"14e3351e68d3e5501e50dfbee4fdd2810d86eb73","infoHashBuffer":{"type":"Buffer","data":[20,227,53,30,104,211,229,80,30,80,223,190,228,253,210,129,13,134,235,115]},"announce":[],"urlList":[]}}